<svg width="512" height="512" viewBox="0 0 512 512" fill="none" xmlns="http://www.w3.org/2000/svg">
  <!-- Splash: centered logo on bone background -->
  <rect width="512" height="512" fill="#F2EFE6"/>
  <!-- mini QR + H logo centered -->
  <rect x="160" y="160" width="192" height="192" rx="42" fill="#0A0A0A"/>
  <!-- finders -->
  <rect x="190" y="190" width="44" height="44" rx="8" fill="none" stroke="#C6FF00" stroke-width="8"/>
  <rect x="202" y="202" width="20" height="20" rx="3" fill="#C6FF00"/>
  <rect x="278" y="190" width="44" height="44" rx="8" fill="none" stroke="#F2EFE6" stroke-width="8"/>
  <rect x="290" y="202" width="20" height="20" rx="3" fill="#F2EFE6"/>
  <rect x="190" y="278" width="44" height="44" rx="8" fill="none" stroke="#F2EFE6" stroke-width="8"/>
  <rect x="202" y="290" width="20" height="20" rx="3" fill="#F2EFE6"/>
  <!-- H monogram -->
  <rect x="232" y="232" width="12" height="48" rx="2" fill="#C6FF00"/>
  <rect x="268" y="232" width="12" height="48" rx="2" fill="#C6FF00"/>
  <rect x="232" y="250" width="48" height="12" rx="2" fill="#C6FF00"/>
  <!-- hand-off arrow -->
  <rect x="278" y="278" width="44" height="44" rx="8" fill="none" stroke="#FF3B1F" stroke-width="8"/>
  <path d="M290 300 L310 300 M304 294 L310 300 L304 306" stroke="#FF3B1F" stroke-width="5" stroke-linecap="round" stroke-linejoin="round" fill="none"/>
</svg>
